<?xml version="1.0" encoding="utf-8"?>
<!-- Generator: Adobe Illustrator 16.0.0, SVG Export Plug-In . SVG Version: 6.00 Build 0)  -->
<!DOCTYPE svg PUBLIC "-//W3C//DTD SVG 1.1//EN" "http://www.w3.org/Graphics/SVG/1.1/DTD/svg11.dtd">
<svg version="1.1" id="Layer_1" xmlns="http://www.w3.org/2000/svg" xmlns:xlink="http://www.w3.org/1999/xlink" x="0px" y="0px"
	 width="128px" height="128px" viewBox="0 0 128 128" enable-background="new 0 0 128 128" xml:space="preserve">
<g>
	<g>
		
			<rect x="5.998" y="44.7" transform="matrix(0.5798 0.8147 -0.8147 0.5798 51.9619 -7.3491)" fill="#282D33" width="54.217" height="4.007"/>
	</g>
	<g>
		<polygon fill="#282D33" points="88.307,127.997 62.666,91.797 65.937,89.48 89.285,122.446 106.532,110.508 78.061,70.313 
			81.33,67.996 112.144,111.498 		"/>
	</g>
	<g>
		
			<rect x="45.003" y="35.218" transform="matrix(0.578 0.8161 -0.8161 0.578 54.4636 -30.8707)" fill="#282D33" width="24.151" height="4.007"/>
	</g>
	<g>
		<polygon fill="#282D33" points="40.074,128 16.232,111.498 76.553,26.337 79.822,28.653 21.844,110.508 39.087,122.443 
			108.969,23.244 112.244,25.552 		"/>
	</g>
	<g>
		<g>
			<polygon fill="#282D33" points="109.416,29.207 83.925,4.007 44.453,4.007 18.963,29.205 16.146,26.355 42.806,0 85.57,0 
				112.233,26.357 			"/>
		</g>
	</g>
	<g>
		<rect x="19.697" y="25.778" fill="#282D33" width="87.604" height="4.007"/>
	</g>
</g>
</svg>
